# Blender v2.77 (sub 0) OBJ File: ''
# www.blender.org
mtllib tribar2.mtl
o tribar2_Plane
v -3.500000 -3.500000 0.000000
v 3.500000 -3.500000 0.000000
v -3.500000 3.500000 0.000000
v 3.500000 3.500000 0.000000
v -3.500000 2.500000 0.000000
v -3.500000 1.500000 0.000000
v -3.500000 0.500000 0.000000
v -3.500000 -0.500000 0.000000
v -3.500000 -1.500000 0.000000
v -3.500000 -2.500000 0.000000
v -2.500000 -3.500000 0.000000
v -1.500000 -3.500000 0.000000
v -0.500000 -3.500000 0.000000
v 0.500000 -3.500000 0.000000
v 1.500000 -3.500000 0.000000
v 2.500000 -3.500000 0.000000
v 3.500000 -2.500000 0.000000
v 3.500000 -1.500000 0.000000
v 3.500000 -0.500000 0.000000
v 3.500000 0.500000 0.000000
v 3.500000 1.500000 0.000000
v 3.500000 2.500000 0.000000
v 2.500000 3.500000 0.000000
v 1.500000 3.500000 0.000000
v 0.500000 3.500000 0.000000
v -0.500000 3.500000 0.000000
v -1.500000 3.500000 0.000000
v -2.500000 3.500000 0.000000
v -2.500000 -2.500000 0.000000
v -2.500000 -1.500000 0.000000
v -2.500000 -0.500000 0.000000
v -2.500000 0.500000 0.000000
v -2.500000 1.500000 0.000000
v -2.500000 2.500000 0.000000
v -1.500000 -2.500000 0.000000
v -1.500000 -1.500000 0.000000
v -1.500000 -0.500000 0.000000
v -1.500000 0.500000 0.000000
v -1.500000 1.500000 0.000000
v -1.500000 2.500000 0.000000
v -0.500000 -2.500000 0.000000
v -0.500000 -1.500000 0.000000
v -0.500000 -0.500000 0.000000
v -0.500000 0.500000 0.000000
v -0.500000 1.500000 0.000000
v -0.500000 2.500000 0.000000
v 0.500000 -2.500000 0.000000
v 0.500000 -1.500000 0.000000
v 0.500000 -0.500000 0.000000
v 0.500000 0.500000 0.000000
v 0.500000 1.500000 0.000000
v 0.500000 2.500000 0.000000
v 1.500000 -2.500000 0.000000
v 1.500000 -1.500000 0.000000
v 1.500000 -0.500000 0.000000
v 1.500000 0.500000 0.000000
v 1.500000 1.500000 0.000000
v 1.500000 2.500000 0.000000
v 2.500000 -2.500000 0.000000
v 2.500000 -1.500000 0.000000
v 2.500000 -0.500000 0.000000
v 2.500000 0.500000 0.000000
v 2.500000 1.500000 0.000000
v 2.500000 2.500000 0.000000
v -4.500000 -3.500000 0.000000
v -4.500000 3.500000 0.000000
v -4.500000 2.500000 0.000000
v -4.500000 1.500000 0.000000
v -4.500000 0.500000 0.000000
v -4.500000 -0.500000 0.000000
v -4.500000 -1.500000 0.000000
v -4.500000 -2.500000 0.000000
v -5.500000 -3.500000 0.000000
v -5.500000 3.500000 0.000000
v -5.500000 2.500000 0.000000
v -5.500000 1.500000 0.000000
v -5.500000 0.500000 0.000000
v -5.500000 -0.500000 0.000000
v -5.500000 -1.500000 0.000000
v -5.500000 -2.500000 0.000000
v -6.500000 -3.500000 0.000000
v -6.500000 3.500000 0.000000
v -6.500000 2.500000 0.000000
v -6.500000 1.500000 0.000000
v -6.500000 0.500000 0.000000
v -6.500000 -0.500000 0.000000
v -6.500000 -1.500000 0.000000
v -6.500000 -2.500000 0.000000
v -7.500000 -3.500000 0.000000
v -7.500000 3.500000 0.000000
v -7.500000 2.500000 0.000000
v -7.500000 1.500000 0.000000
v -7.500000 0.500000 0.000000
v -7.500000 -0.500000 0.000000
v -7.500000 -1.500000 0.000000
v -7.500000 -2.500000 0.000000
v -8.500000 -3.500000 0.000000
v -8.500000 3.500000 0.000000
v -8.500000 2.500000 0.000000
v -8.500000 1.500000 0.000000
v -8.500000 0.500000 0.000000
v -8.500000 -0.500000 0.000000
v -8.500000 -1.500000 0.000000
v -8.500000 -2.500000 0.000000
v -9.500000 -3.500000 0.000000
v -9.500000 3.500000 0.000000
v -9.500000 2.500000 0.000000
v -9.500000 1.500000 0.000000
v -9.500000 0.500000 0.000000
v -9.500000 -0.500000 0.000000
v -9.500000 -1.500000 0.000000
v -9.500000 -2.500000 0.000000
vn 0.0000 0.0000 1.0000
usemtl White
s off
f 29//1 35//1 36//1 30//1
f 31//1 37//1 38//1 32//1
f 33//1 39//1 40//1 34//1
f 35//1 41//1 42//1 36//1
f 37//1 43//1 44//1 38//1
f 39//1 45//1 46//1 40//1
f 41//1 47//1 48//1 42//1
f 43//1 49//1 50//1 44//1
f 45//1 51//1 52//1 46//1
f 47//1 53//1 54//1 48//1
f 49//1 55//1 56//1 50//1
f 51//1 57//1 58//1 52//1
f 53//1 59//1 60//1 54//1
f 55//1 61//1 62//1 56//1
f 57//1 63//1 64//1 58//1
f 7//1 6//1 68//1 69//1
f 10//1 9//1 71//1 72//1
f 8//1 7//1 69//1 70//1
f 6//1 5//1 67//1 68//1
f 9//1 8//1 70//1 71//1
f 79//1 78//1 86//1 87//1
f 77//1 76//1 84//1 85//1
f 80//1 79//1 87//1 88//1
f 78//1 77//1 85//1 86//1
f 76//1 75//1 83//1 84//1
f 93//1 92//1 100//1 101//1
f 96//1 95//1 103//1 104//1
f 94//1 93//1 101//1 102//1
f 92//1 91//1 99//1 100//1
f 95//1 94//1 102//1 103//1
usemtl Black
f 64//1 22//1 4//1 23//1
f 5//1 34//1 28//1 3//1
f 34//1 40//1 27//1 28//1
f 40//1 46//1 26//1 27//1
f 46//1 52//1 25//1 26//1
f 52//1 58//1 24//1 25//1
f 58//1 64//1 23//1 24//1
f 1//1 11//1 29//1 10//1
f 10//1 29//1 30//1 9//1
f 9//1 30//1 31//1 8//1
f 8//1 31//1 32//1 7//1
f 7//1 32//1 33//1 6//1
f 6//1 33//1 34//1 5//1
f 11//1 12//1 35//1 29//1
f 30//1 36//1 37//1 31//1
f 32//1 38//1 39//1 33//1
f 12//1 13//1 41//1 35//1
f 36//1 42//1 43//1 37//1
f 38//1 44//1 45//1 39//1
f 13//1 14//1 47//1 41//1
f 42//1 48//1 49//1 43//1
f 44//1 50//1 51//1 45//1
f 14//1 15//1 53//1 47//1
f 48//1 54//1 55//1 49//1
f 50//1 56//1 57//1 51//1
f 15//1 16//1 59//1 53//1
f 54//1 60//1 61//1 55//1
f 56//1 62//1 63//1 57//1
f 16//1 2//1 17//1 59//1
f 59//1 17//1 18//1 60//1
f 60//1 18//1 19//1 61//1
f 61//1 19//1 20//1 62//1
f 62//1 20//1 21//1 63//1
f 63//1 21//1 22//1 64//1
f 5//1 3//1 66//1 67//1
f 1//1 10//1 72//1 65//1
f 70//1 69//1 77//1 78//1
f 68//1 67//1 75//1 76//1
f 65//1 72//1 80//1 73//1
f 71//1 70//1 78//1 79//1
f 69//1 68//1 76//1 77//1
f 67//1 66//1 74//1 75//1
f 72//1 71//1 79//1 80//1
f 73//1 80//1 88//1 81//1
f 75//1 74//1 82//1 83//1
f 87//1 86//1 94//1 95//1
f 85//1 84//1 92//1 93//1
f 83//1 82//1 90//1 91//1
f 88//1 87//1 95//1 96//1
f 86//1 85//1 93//1 94//1
f 84//1 83//1 91//1 92//1
f 81//1 88//1 96//1 89//1
f 91//1 90//1 98//1 99//1
f 89//1 96//1 104//1 97//1
f 104//1 103//1 111//1 112//1
f 102//1 101//1 109//1 110//1
f 100//1 99//1 107//1 108//1
f 97//1 104//1 112//1 105//1
f 103//1 102//1 110//1 111//1
f 101//1 100//1 108//1 109//1
f 99//1 98//1 106//1 107//1
