# Blender v2.77 (sub 0) OBJ File: 'basic.blend'
# www.blender.org
mtllib basic_triangularprism.mtl
o basic_triangularprism
v -0.500000 -0.433013 0.000000
v -0.500000 -0.433013 1.000000
v  0.500000 -0.433013 0.000000
v  0.500000 -0.433013 1.000000
v  0.000000  0.433013 0.000000
v  0.000000  0.433013 1.000000
vn -0.866000 0.500000 0.000000
vn 0.866000 0.500000 0.000000
vn 0.000000 -1.000000 0.000000
vn 0.000000 0.000000 -1.000000
vn 0.000000 0.000000 1.000000
usemtl None
s off
f 1//1 2//1 6//1 5//1
f 6//2 4//2 3//2 5//2
f 4//3 2//3 1//3 3//3
f 5//4 3//4 1//4
f 2//5 4//5 6//5
