# Blender v2.76 (sub 0) OBJ File: ''
# www.blender.org
mtllib model.mtl
o trichecker4_Cube.002
v 5.503537 16.436098 4.794758
v 6.850833 14.927286 8.245593
v 5.000000 15.000000 8.999999
v 3.652705 16.508812 5.549163
v 7.892722 20.479784 10.266538
v 6.041890 20.552498 11.020945
v 5.000001 15.000001 9.000000
v 6.850833 14.927287 8.245594
v 4.694593 22.061312 7.570108
v 6.041889 20.552498 11.020944
v 5.000000 15.000001 8.999999
v 3.652704 16.508816 5.549165
vt 0.999850 0.999850
vt 0.000150 0.999850
vt 0.000150 0.000150
vt 0.999850 0.000150
vt 1.000000 1.000000
vt 0.000000 1.000000
vt 1.000000 0.000000
vn -0.173600 -0.925400 -0.336800
vn 0.336800 -0.377200 0.862700
vn 0.925400 -0.036400 -0.377200
usemtl Material.001
s off
f 1/1/1 2/2/1 3/3/1 4/4/1
f 5/1/2 6/2/2 7/3/2 8/4/2
f 9/5/3 10/6/3 11/3/3 12/7/3
o trichecker5_Cube.000
v 3.000000 2.999999 0.000000
v 3.000000 0.000001 0.000000
v 0.000001 0.000001 0.000000
v 0.000001 3.000000 0.000000
v 3.000000 -0.000000 2.999999
v 0.000001 -0.000000 2.999999
v 0.000001 0.000000 0.000000
v 3.000000 0.000000 0.000001
v 0.000000 2.999999 3.000000
v 0.000000 0.000000 2.999999
v 0.000000 0.000001 0.000000
v 0.000000 3.000000 0.000001
vt 0.999850 0.999850
vt 0.000150 0.999850
vt 0.000150 0.000150
vt 0.999850 0.000150
vt 1.000000 1.000000
vt 0.000000 1.000000
vt 1.000000 0.000000
vn 0.000000 -0.000000 -1.000000
vn 0.000000 -1.000000 -0.000000
vn 1.000000 -0.000000 -0.000000
usemtl Material.002
s off
f 13/8/4 14/9/4 15/10/4 16/11/4
f 17/8/5 18/9/5 19/10/5 20/11/5
f 21/12/6 22/13/6 23/10/6 24/14/6
