# Blender v2.77 (sub 0) OBJ File: 'gcp.blend'
# www.blender.org
mtllib gcp.mtl
o gcp
v 0.500000 0.500000 -0.050000
v 0.500000 -0.500000 -0.050000
v -0.500000 -0.500000 -0.050000
v -0.500000 0.500000 -0.050000
v 0.500000 0.499999 0.000000
v 0.499999 -0.500000 0.000000
v -0.500000 -0.500000 0.000000
v -0.500000 0.500000 0.000000
v 0.500000 -0.000000 0.000000
v 0.000000 0.500000 0.000000
v -0.000000 -0.500000 0.000000
v -0.500000 0.000000 0.000000
v -0.000000 -0.000000 0.000000
vn 0.0000 0.0000 1.0000
vn -0.0000 0.0000 -1.0000
vn 1.0000 -0.0000 0.0000
vn -0.0000 -1.0000 -0.0000
vn -1.0000 0.0000 -0.0000
vn 0.0000 1.0000 0.0000
usemtl White
s off
f 9//1 13//1 11//1 6//1
f 10//1 8//1 12//1 13//1
usemtl Black
f 1//2 2//2 3//2 4//2
f 13//1 12//1 7//1 11//1
f 1//3 5//3 9//3 6//3 2//3
f 2//4 6//4 11//4 7//4 3//4
f 3//5 7//5 12//5 8//5 4//5
f 5//6 1//6 4//6 8//6 10//6
f 5//1 10//1 13//1 9//1
