# Blender v2.77 (sub 0) OBJ File: ''
# www.blender.org
mtllib seimens.mtl
o seimens
v 0.000000 0.000000 0.000000
v 0.000000 1.000000 0.000000
v -0.049068 0.998795 0.000000
v -0.098017 0.995185 0.000000
v -0.146730 0.989177 0.000000
v -0.195090 0.980785 0.000000
v -0.242980 0.970031 0.000000
v -0.290285 0.956940 0.000000
v -0.336890 0.941544 0.000000
v -0.382683 0.923880 0.000000
v -0.427555 0.903989 0.000000
v -0.471397 0.881921 0.000000
v -0.514103 0.857729 0.000000
v -0.555570 0.831470 0.000000
v -0.595699 0.803208 0.000000
v -0.634393 0.773010 0.000000
v -0.671559 0.740951 0.000000
v -0.707107 0.707107 0.000000
v -0.740951 0.671559 0.000000
v -0.773011 0.634393 0.000000
v -0.803208 0.595699 0.000000
v -0.831470 0.555570 0.000000
v -0.857729 0.514103 0.000000
v -0.881921 0.471397 0.000000
v -0.903989 0.427555 0.000000
v -0.923880 0.382683 0.000000
v -0.941544 0.336890 0.000000
v -0.956940 0.290284 0.000000
v -0.970031 0.242980 0.000000
v -0.980785 0.195090 0.000000
v -0.989177 0.146730 0.000000
v -0.995185 0.098017 0.000000
v -0.998795 0.049067 0.000000
v -1.000000 -0.000000 0.000000
v -0.998795 -0.049068 0.000000
v -0.995185 -0.098018 0.000000
v -0.989176 -0.146731 0.000000
v -0.980785 -0.195091 0.000000
v -0.970031 -0.242981 0.000000
v -0.956940 -0.290285 0.000000
v -0.941544 -0.336890 0.000000
v -0.923879 -0.382684 0.000000
v -0.903989 -0.427556 0.000000
v -0.881921 -0.471397 0.000000
v -0.857728 -0.514103 0.000000
v -0.831470 -0.555570 0.000000
v -0.803208 -0.595699 0.000000
v -0.773010 -0.634393 0.000000
v -0.740951 -0.671559 0.000000
v -0.707107 -0.707107 0.000000
v -0.671559 -0.740951 0.000000
v -0.634394 -0.773010 0.000000
v -0.595700 -0.803207 0.000000
v -0.555571 -0.831469 0.000000
v -0.514103 -0.857728 0.000000
v -0.471397 -0.881921 0.000000
v -0.427556 -0.903989 0.000000
v -0.382684 -0.923879 0.000000
v -0.336891 -0.941544 0.000000
v -0.290286 -0.956940 0.000000
v -0.242981 -0.970031 0.000000
v -0.195092 -0.980785 0.000000
v -0.146732 -0.989176 0.000000
v -0.098019 -0.995185 0.000000
v -0.049069 -0.998795 0.000000
v -0.000002 -1.000000 0.000000
v 0.049066 -0.998796 0.000000
v 0.098015 -0.995185 0.000000
v 0.146728 -0.989177 0.000000
v 0.195088 -0.980786 0.000000
v 0.242978 -0.970032 0.000000
v 0.290282 -0.956941 0.000000
v 0.336887 -0.941545 0.000000
v 0.382681 -0.923881 0.000000
v 0.427553 -0.903990 0.000000
v 0.471394 -0.881923 0.000000
v 0.514100 -0.857730 0.000000
v 0.555568 -0.831471 0.000000
v 0.595697 -0.803209 0.000000
v 0.634391 -0.773012 0.000000
v 0.671557 -0.740953 0.000000
v 0.707104 -0.707109 0.000000
v 0.740949 -0.671562 0.000000
v 0.773008 -0.634396 0.000000
v 0.803206 -0.595702 0.000000
v 0.831468 -0.555573 0.000000
v 0.857727 -0.514105 0.000000
v 0.881920 -0.471399 0.000000
v 0.903988 -0.427557 0.000000
v 0.923879 -0.382686 0.000000
v 0.941543 -0.336892 0.000000
v 0.956940 -0.290287 0.000000
v 0.970031 -0.242982 0.000000
v 0.980785 -0.195092 0.000000
v 0.989176 -0.146732 0.000000
v 0.995185 -0.098019 0.000000
v 0.998795 -0.049069 0.000000
v 1.000000 -0.000001 0.000000
v 0.998796 0.049066 0.000000
v 0.995185 0.098016 0.000000
v 0.989177 0.146729 0.000000
v 0.980785 0.195089 0.000000
v 0.970031 0.242979 0.000000
v 0.956941 0.290284 0.000000
v 0.941544 0.336889 0.000000
v 0.923880 0.382683 0.000000
v 0.903989 0.427555 0.000000
v 0.881921 0.471397 0.000000
v 0.857729 0.514103 0.000000
v 0.831469 0.555570 0.000000
v 0.803207 0.595700 0.000000
v 0.773010 0.634394 0.000000
v 0.740951 0.671559 0.000000
v 0.707106 0.707107 0.000000
v 0.671558 0.740952 0.000000
v 0.634392 0.773011 0.000000
v 0.595698 0.803208 0.000000
v 0.555569 0.831470 0.000000
v 0.514101 0.857729 0.000000
v 0.471395 0.881922 0.000000
v 0.427553 0.903990 0.000000
v 0.382682 0.923880 0.000000
v 0.336888 0.941545 0.000000
v 0.290283 0.956941 0.000000
v 0.242978 0.970032 0.000000
v 0.195088 0.980786 0.000000
v 0.146728 0.989177 0.000000
v 0.098014 0.995185 0.000000
v 0.049065 0.998796 0.000000
vn 0.0000 0.0000 1.0000
usemtl White
s off
f 1//1 3//1 4//1
f 1//1 5//1 6//1
f 1//1 7//1 8//1
f 1//1 9//1 10//1
f 1//1 11//1 12//1
f 1//1 13//1 14//1
f 1//1 15//1 16//1
f 1//1 17//1 18//1
f 1//1 19//1 20//1
f 1//1 21//1 22//1
f 1//1 23//1 24//1
f 1//1 25//1 26//1
f 1//1 27//1 28//1
f 1//1 29//1 30//1
f 1//1 31//1 32//1
f 1//1 33//1 34//1
f 1//1 35//1 36//1
f 1//1 37//1 38//1
f 1//1 39//1 40//1
f 1//1 41//1 42//1
f 1//1 43//1 44//1
f 1//1 45//1 46//1
f 1//1 47//1 48//1
f 1//1 49//1 50//1
f 1//1 51//1 52//1
f 1//1 53//1 54//1
f 1//1 55//1 56//1
f 1//1 57//1 58//1
f 1//1 59//1 60//1
f 1//1 61//1 62//1
f 1//1 63//1 64//1
f 1//1 65//1 66//1
f 1//1 67//1 68//1
f 1//1 69//1 70//1
f 1//1 71//1 72//1
f 1//1 73//1 74//1
f 1//1 75//1 76//1
f 1//1 77//1 78//1
f 1//1 79//1 80//1
f 1//1 81//1 82//1
f 1//1 83//1 84//1
f 1//1 85//1 86//1
f 1//1 87//1 88//1
f 1//1 89//1 90//1
f 1//1 91//1 92//1
f 1//1 93//1 94//1
f 1//1 95//1 96//1
f 1//1 97//1 98//1
f 1//1 99//1 100//1
f 1//1 101//1 102//1
f 1//1 103//1 104//1
f 1//1 105//1 106//1
f 1//1 107//1 108//1
f 1//1 109//1 110//1
f 1//1 111//1 112//1
f 1//1 113//1 114//1
f 1//1 115//1 116//1
f 1//1 117//1 118//1
f 1//1 119//1 120//1
f 1//1 121//1 122//1
f 1//1 123//1 124//1
f 1//1 125//1 126//1
f 1//1 127//1 128//1
f 1//1 129//1 2//1
usemtl Black
f 1//1 2//1 3//1
f 1//1 4//1 5//1
f 1//1 6//1 7//1
f 1//1 8//1 9//1
f 1//1 10//1 11//1
f 1//1 12//1 13//1
f 1//1 14//1 15//1
f 1//1 16//1 17//1
f 1//1 18//1 19//1
f 1//1 20//1 21//1
f 1//1 22//1 23//1
f 1//1 24//1 25//1
f 1//1 26//1 27//1
f 1//1 28//1 29//1
f 1//1 30//1 31//1
f 1//1 32//1 33//1
f 1//1 34//1 35//1
f 1//1 36//1 37//1
f 1//1 38//1 39//1
f 1//1 40//1 41//1
f 1//1 42//1 43//1
f 1//1 44//1 45//1
f 1//1 46//1 47//1
f 1//1 48//1 49//1
f 1//1 50//1 51//1
f 1//1 52//1 53//1
f 1//1 54//1 55//1
f 1//1 56//1 57//1
f 1//1 58//1 59//1
f 1//1 60//1 61//1
f 1//1 62//1 63//1
f 1//1 64//1 65//1
f 1//1 66//1 67//1
f 1//1 68//1 69//1
f 1//1 70//1 71//1
f 1//1 72//1 73//1
f 1//1 74//1 75//1
f 1//1 76//1 77//1
f 1//1 78//1 79//1
f 1//1 80//1 81//1
f 1//1 82//1 83//1
f 1//1 84//1 85//1
f 1//1 86//1 87//1
f 1//1 88//1 89//1
f 1//1 90//1 91//1
f 1//1 92//1 93//1
f 1//1 94//1 95//1
f 1//1 96//1 97//1
f 1//1 98//1 99//1
f 1//1 100//1 101//1
f 1//1 102//1 103//1
f 1//1 104//1 105//1
f 1//1 106//1 107//1
f 1//1 108//1 109//1
f 1//1 110//1 111//1
f 1//1 112//1 113//1
f 1//1 114//1 115//1
f 1//1 116//1 117//1
f 1//1 118//1 119//1
f 1//1 120//1 121//1
f 1//1 122//1 123//1
f 1//1 124//1 125//1
f 1//1 126//1 127//1
f 1//1 128//1 129//1
