# Blender v2.77 (sub 0) OBJ File: ''
# www.blender.org
mtllib basic_hollowcircle.mtl
o basic_hollowcircle
v -0.245200 0.048774 0.000000
v -0.230970 0.095670 0.000000
v -0.461940 0.191342 0.000000
v -0.490393 0.097545 0.000000
v 0.207865 -0.138896 0.000000
v 0.176780 -0.176776 0.000000
v 0.353554 -0.353553 0.000000
v 0.415735 -0.277785 0.000000
v -0.250000 -0.000000 0.000000
v -0.500000 0.000000 0.000000
v 0.230970 -0.095670 0.000000
v 0.461940 -0.191342 0.000000
v -0.245200 -0.048775 0.000000
v -0.490393 -0.097545 0.000000
v 0.245195 -0.048775 0.000000
v 0.490393 -0.097544 0.000000
v -0.230970 -0.095670 0.000000
v -0.461940 -0.191342 0.000000
v 0.250000 -0.000000 0.000000
v 0.500000 0.000000 0.000000
v -0.207865 -0.138896 0.000000
v -0.415735 -0.277785 0.000000
v 0.245195 0.048774 0.000000
v 0.490393 0.097545 0.000000
v -0.176780 -0.176776 0.000000
v -0.353554 -0.353554 0.000000
v 0.230970 0.095670 0.000000
v 0.461940 0.191342 0.000000
v -0.138895 -0.207866 0.000000
v -0.277785 -0.415735 0.000000
v 0.207865 0.138894 0.000000
v 0.415734 0.277786 0.000000
v -0.095670 -0.230971 0.000000
v -0.191342 -0.461940 0.000000
v -0.048775 0.245199 0.000000
v 0.000000 0.249999 0.000000
v 0.000000 0.500000 0.000000
v -0.097545 0.490393 0.000000
v 0.176775 0.176779 0.000000
v 0.353553 0.353554 0.000000
v -0.048775 -0.245196 0.000000
v -0.097545 -0.490393 0.000000
v -0.095670 0.230969 0.000000
v -0.191342 0.461940 0.000000
v 0.138895 0.207864 0.000000
v 0.277784 0.415735 0.000000
v 0.000000 -0.250001 0.000000
v 0.000000 -0.500000 0.000000
v -0.138895 0.207864 0.000000
v -0.277785 0.415735 0.000000
v 0.095670 0.230969 0.000000
v 0.191341 0.461940 0.000000
v 0.048775 -0.245196 0.000000
v 0.097545 -0.490393 0.000000
v -0.176780 0.176779 0.000000
v -0.353554 0.353554 0.000000
v 0.048775 0.245199 0.000000
v 0.097544 0.490393 0.000000
v 0.095670 -0.230971 0.000000
v 0.191342 -0.461940 0.000000
v -0.207865 0.138894 0.000000
v -0.415735 0.277785 0.000000
v 0.138895 -0.207866 0.000000
v 0.277786 -0.415734 0.000000
vn 0.0000 0.0000 1.0000
usemtl None.001
s 1
f 1//1 2//1 3//1 4//1
f 5//1 6//1 7//1 8//1
f 9//1 1//1 4//1 10//1
f 11//1 5//1 8//1 12//1
f 13//1 9//1 10//1 14//1
f 15//1 11//1 12//1 16//1
f 17//1 13//1 14//1 18//1
f 19//1 15//1 16//1 20//1
f 21//1 17//1 18//1 22//1
f 23//1 19//1 20//1 24//1
f 25//1 21//1 22//1 26//1
f 27//1 23//1 24//1 28//1
f 29//1 25//1 26//1 30//1
f 31//1 27//1 28//1 32//1
f 33//1 29//1 30//1 34//1
f 35//1 36//1 37//1 38//1
f 39//1 31//1 32//1 40//1
f 41//1 33//1 34//1 42//1
f 43//1 35//1 38//1 44//1
f 45//1 39//1 40//1 46//1
f 47//1 41//1 42//1 48//1
f 49//1 43//1 44//1 50//1
f 51//1 45//1 46//1 52//1
f 53//1 47//1 48//1 54//1
f 55//1 49//1 50//1 56//1
f 57//1 51//1 52//1 58//1
f 59//1 53//1 54//1 60//1
f 61//1 55//1 56//1 62//1
f 36//1 57//1 58//1 37//1
f 63//1 59//1 60//1 64//1
f 2//1 61//1 62//1 3//1
f 6//1 63//1 64//1 7//1
