# Blender v2.77 (sub 0) OBJ File: 'controlAndCalibration.blend'
# www.blender.org
mtllib calibration_tribar2.mtl
o calibration_tribar2
v -2.500000 -2.500000 0.000000
v -1.500000 -2.500000 0.000000
v -1.500000 -1.500000 0.000000
v -2.500000 -1.500000 0.000000
v -2.500000 -0.500000 0.000000
v -1.500000 -0.500000 0.000000
v -1.500000 0.500000 0.000000
v -2.500000 0.500000 0.000000
v -2.500000 1.500000 0.000000
v -1.500000 1.500000 0.000000
v -1.500000 2.500000 0.000000
v -2.500000 2.500000 0.000000
v -0.500000 -2.500000 0.000000
v -0.500000 -1.500000 0.000000
v -0.500000 -0.500000 0.000000
v -0.500000 0.500000 0.000000
v -0.500000 1.500000 0.000000
v -0.500000 2.500000 0.000000
v 0.500000 -2.500000 0.000000
v 0.500000 -1.500000 0.000000
v 0.500000 -0.500000 0.000000
v 0.500000 0.500000 0.000000
v 0.500000 1.500000 0.000000
v 0.500000 2.500000 0.000000
v 1.500000 -2.500000 0.000000
v 1.500000 -1.500000 0.000000
v 1.500000 -0.500000 0.000000
v 1.500000 0.500000 0.000000
v 1.500000 1.500000 0.000000
v 1.500000 2.500000 0.000000
v 2.500000 -2.500000 0.000000
v 2.500000 -1.500000 0.000000
v 2.500000 -0.500000 0.000000
v 2.500000 0.500000 0.000000
v 2.500000 1.500000 0.000000
v 2.500000 2.500000 0.000000
v -3.500000 0.500000 0.000000
v -3.500000 1.500000 0.000000
v -4.500000 1.500000 0.000000
v -4.500000 0.500000 0.000000
v -3.500000 -2.500000 0.000000
v -3.500000 -1.500000 0.000000
v -4.500000 -1.500000 0.000000
v -4.500000 -2.500000 0.000000
v -3.500000 -0.500000 0.000000
v -4.500000 -0.500000 0.000000
v -3.500000 2.500000 0.000000
v -4.500000 2.500000 0.000000
v -5.500000 -1.500000 0.000000
v -5.500000 -0.500000 0.000000
v -6.500000 -0.500000 0.000000
v -6.500000 -1.500000 0.000000
v -5.500000 0.500000 0.000000
v -5.500000 1.500000 0.000000
v -6.500000 1.500000 0.000000
v -6.500000 0.500000 0.000000
v -5.500000 -2.500000 0.000000
v -6.500000 -2.500000 0.000000
v -5.500000 2.500000 0.000000
v -6.500000 2.500000 0.000000
v -7.500000 0.500000 0.000000
v -7.500000 1.500000 0.000000
v -8.500000 1.500000 0.000000
v -8.500000 0.500000 0.000000
v -7.500000 -2.500000 0.000000
v -7.500000 -1.500000 0.000000
v -8.500000 -1.500000 0.000000
v -8.500000 -2.500000 0.000000
v -7.500000 -0.500000 0.000000
v -8.500000 -0.500000 0.000000
v -7.500000 2.500000 0.000000
v -8.500000 2.500000 0.000000
v 3.500000 2.500000 0.000000
v 3.500000 3.500000 0.000000
v 2.500000 3.500000 0.000000
v -2.500000 3.500000 0.000000
v -3.500000 3.500000 0.000000
v -1.500000 3.500000 0.000000
v -0.500000 3.500000 0.000000
v 0.500000 3.500000 0.000000
v 1.500000 3.500000 0.000000
v -3.500000 -3.500000 0.000000
v -2.500000 -3.500000 0.000000
v -1.500000 -3.500000 0.000000
v -0.500000 -3.500000 0.000000
v 0.500000 -3.500000 0.000000
v 1.500000 -3.500000 0.000000
v 2.500000 -3.500000 0.000000
v 3.500000 -3.500000 0.000000
v 3.500000 -2.500000 0.000000
v 3.500000 -1.500000 0.000000
v 3.500000 -0.500000 0.000000
v 3.500000 0.500000 0.000000
v 3.500000 1.500000 0.000000
v -4.500000 3.500000 0.000000
v -4.500000 -3.500000 0.000000
v -5.500000 -3.500000 0.000000
v -5.500000 3.500000 0.000000
v -6.500000 -3.500000 0.000000
v -6.500000 3.500000 0.000000
v -7.500000 3.500000 0.000000
v -7.500000 -3.500000 0.000000
v -8.500000 3.500000 0.000000
v -8.500000 -3.500000 0.000000
v -9.500000 -1.500000 0.000000
v -9.500000 -2.500000 0.000000
v -9.500000 0.500000 0.000000
v -9.500000 -0.500000 0.000000
v -9.500000 2.500000 0.000000
v -9.500000 1.500000 0.000000
v -9.500000 -3.500000 0.000000
v -9.500000 3.500000 0.000000
vn 0.0000 0.0000 1.0000
usemtl White.003
s 1
f 1//1 2//1 3//1 4//1
f 5//1 6//1 7//1 8//1
f 9//1 10//1 11//1 12//1
f 2//1 13//1 14//1 3//1
f 6//1 15//1 16//1 7//1
f 10//1 17//1 18//1 11//1
f 13//1 19//1 20//1 14//1
f 15//1 21//1 22//1 16//1
f 17//1 23//1 24//1 18//1
f 19//1 25//1 26//1 20//1
f 21//1 27//1 28//1 22//1
f 23//1 29//1 30//1 24//1
f 25//1 31//1 32//1 26//1
f 27//1 33//1 34//1 28//1
f 29//1 35//1 36//1 30//1
f 37//1 38//1 39//1 40//1
f 41//1 42//1 43//1 44//1
f 45//1 37//1 40//1 46//1
f 38//1 47//1 48//1 39//1
f 42//1 45//1 46//1 43//1
f 49//1 50//1 51//1 52//1
f 53//1 54//1 55//1 56//1
f 57//1 49//1 52//1 58//1
f 50//1 53//1 56//1 51//1
f 54//1 59//1 60//1 55//1
f 61//1 62//1 63//1 64//1
f 65//1 66//1 67//1 68//1
f 69//1 61//1 64//1 70//1
f 62//1 71//1 72//1 63//1
f 66//1 69//1 70//1 67//1
usemtl Black.003
f 36//1 73//1 74//1 75//1
f 47//1 12//1 76//1 77//1
f 12//1 11//1 78//1 76//1
f 11//1 18//1 79//1 78//1
f 18//1 24//1 80//1 79//1
f 24//1 30//1 81//1 80//1
f 30//1 36//1 75//1 81//1
f 82//1 83//1 1//1 41//1
f 41//1 1//1 4//1 42//1
f 42//1 4//1 5//1 45//1
f 45//1 5//1 8//1 37//1
f 37//1 8//1 9//1 38//1
f 38//1 9//1 12//1 47//1
f 83//1 84//1 2//1 1//1
f 4//1 3//1 6//1 5//1
f 8//1 7//1 10//1 9//1
f 84//1 85//1 13//1 2//1
f 3//1 14//1 15//1 6//1
f 7//1 16//1 17//1 10//1
f 85//1 86//1 19//1 13//1
f 14//1 20//1 21//1 15//1
f 16//1 22//1 23//1 17//1
f 86//1 87//1 25//1 19//1
f 20//1 26//1 27//1 21//1
f 22//1 28//1 29//1 23//1
f 87//1 88//1 31//1 25//1
f 26//1 32//1 33//1 27//1
f 28//1 34//1 35//1 29//1
f 88//1 89//1 90//1 31//1
f 31//1 90//1 91//1 32//1
f 32//1 91//1 92//1 33//1
f 33//1 92//1 93//1 34//1
f 34//1 93//1 94//1 35//1
f 35//1 94//1 73//1 36//1
f 47//1 77//1 95//1 48//1
f 82//1 41//1 44//1 96//1
f 46//1 40//1 53//1 50//1
f 39//1 48//1 59//1 54//1
f 96//1 44//1 57//1 97//1
f 43//1 46//1 50//1 49//1
f 40//1 39//1 54//1 53//1
f 48//1 95//1 98//1 59//1
f 44//1 43//1 49//1 57//1
f 97//1 57//1 58//1 99//1
f 59//1 98//1 100//1 60//1
f 52//1 51//1 69//1 66//1
f 56//1 55//1 62//1 61//1
f 60//1 100//1 101//1 71//1
f 58//1 52//1 66//1 65//1
f 51//1 56//1 61//1 69//1
f 55//1 60//1 71//1 62//1
f 99//1 58//1 65//1 102//1
f 71//1 101//1 103//1 72//1
f 102//1 65//1 68//1 104//1
f 68//1 67//1 105//1 106//1
f 70//1 64//1 107//1 108//1
f 63//1 72//1 109//1 110//1
f 104//1 68//1 106//1 111//1
f 67//1 70//1 108//1 105//1
f 64//1 63//1 110//1 107//1
f 72//1 103//1 112//1 109//1
