# Blender v2.77 (sub 0) OBJ File: 'controlAndCalibration.blend'
# www.blender.org
mtllib calibration_tribar.mtl
o calibration_tribar
v -2.500000 -2.500000 0.000000
v -1.500000 -2.500000 0.000000
v -1.500000 -1.500000 0.000000
v -2.500000 -1.500000 0.000000
v -2.500000 -0.500000 0.000000
v -1.500000 -0.500000 0.000000
v -1.500000 0.500000 0.000000
v -2.500000 0.500000 0.000000
v -2.500000 1.500000 0.000000
v -1.500000 1.500000 0.000000
v -1.500000 2.500000 0.000000
v -2.500000 2.500000 0.000000
v -0.500000 -2.500000 0.000000
v -0.500000 -1.500000 0.000000
v -0.500000 -0.500000 0.000000
v -0.500000 0.500000 0.000000
v -0.500000 1.500000 0.000000
v -0.500000 2.500000 0.000000
v 0.500000 -2.500000 0.000000
v 0.500000 -1.500000 0.000000
v 0.500000 -0.500000 0.000000
v 0.500000 0.500000 0.000000
v 0.500000 1.500000 0.000000
v 0.500000 2.500000 0.000000
v 1.500000 -2.500000 0.000000
v 1.500000 -1.500000 0.000000
v 1.500000 -0.500000 0.000000
v 1.500000 0.500000 0.000000
v 1.500000 1.500000 0.000000
v 1.500000 2.500000 0.000000
v 2.500000 -2.500000 0.000000
v 2.500000 -1.500000 0.000000
v 2.500000 -0.500000 0.000000
v 2.500000 0.500000 0.000000
v 2.500000 1.500000 0.000000
v 2.500000 2.500000 0.000000
v 3.500000 2.500000 0.000000
v 3.500000 3.500000 0.000000
v 2.500000 3.500000 0.000000
v -3.500000 2.500000 0.000000
v -2.500000 3.500000 0.000000
v -3.500000 3.500000 0.000000
v -1.500000 3.500000 0.000000
v -0.500000 3.500000 0.000000
v 0.500000 3.500000 0.000000
v 1.500000 3.500000 0.000000
v -3.500000 -3.500000 0.000000
v -2.500000 -3.500000 0.000000
v -3.500000 -2.500000 0.000000
v -3.500000 -1.500000 0.000000
v -3.500000 -0.500000 0.000000
v -3.500000 0.500000 0.000000
v -3.500000 1.500000 0.000000
v -1.500000 -3.500000 0.000000
v -0.500000 -3.500000 0.000000
v 0.500000 -3.500000 0.000000
v 1.500000 -3.500000 0.000000
v 2.500000 -3.500000 0.000000
v 3.500000 -3.500000 0.000000
v 3.500000 -2.500000 0.000000
v 3.500000 -1.500000 0.000000
v 3.500000 -0.500000 0.000000
v 3.500000 0.500000 0.000000
v 3.500000 1.500000 0.000000
vn 0.0000 0.0000 1.0000
usemtl White.002
s 1
f 1//1 2//1 3//1 4//1
f 5//1 6//1 7//1 8//1
f 9//1 10//1 11//1 12//1
f 2//1 13//1 14//1 3//1
f 6//1 15//1 16//1 7//1
f 10//1 17//1 18//1 11//1
f 13//1 19//1 20//1 14//1
f 15//1 21//1 22//1 16//1
f 17//1 23//1 24//1 18//1
f 19//1 25//1 26//1 20//1
f 21//1 27//1 28//1 22//1
f 23//1 29//1 30//1 24//1
f 25//1 31//1 32//1 26//1
f 27//1 33//1 34//1 28//1
f 29//1 35//1 36//1 30//1
usemtl Black.002
f 36//1 37//1 38//1 39//1
f 40//1 12//1 41//1 42//1
f 12//1 11//1 43//1 41//1
f 11//1 18//1 44//1 43//1
f 18//1 24//1 45//1 44//1
f 24//1 30//1 46//1 45//1
f 30//1 36//1 39//1 46//1
f 47//1 48//1 1//1 49//1
f 49//1 1//1 4//1 50//1
f 50//1 4//1 5//1 51//1
f 51//1 5//1 8//1 52//1
f 52//1 8//1 9//1 53//1
f 53//1 9//1 12//1 40//1
f 48//1 54//1 2//1 1//1
f 4//1 3//1 6//1 5//1
f 8//1 7//1 10//1 9//1
f 54//1 55//1 13//1 2//1
f 3//1 14//1 15//1 6//1
f 7//1 16//1 17//1 10//1
f 55//1 56//1 19//1 13//1
f 14//1 20//1 21//1 15//1
f 16//1 22//1 23//1 17//1
f 56//1 57//1 25//1 19//1
f 20//1 26//1 27//1 21//1
f 22//1 28//1 29//1 23//1
f 57//1 58//1 31//1 25//1
f 26//1 32//1 33//1 27//1
f 28//1 34//1 35//1 29//1
f 58//1 59//1 60//1 31//1
f 31//1 60//1 61//1 32//1
f 32//1 61//1 62//1 33//1
f 33//1 62//1 63//1 34//1
f 34//1 63//1 64//1 35//1
f 35//1 64//1 37//1 36//1
