# Blender v2.76 (sub 0) OBJ File: ''
# www.blender.org
mtllib model.mtl
o trichecker4_Cube.002
v 1.000000 1.000000 0.000000
v 1.000000 0.000000 0.000000
v 0.000000 0.000000 0.000000
v 0.000000 1.000000 0.000000
v 1.000000 -0.000000 1.000000
v 0.000000 -0.000000 1.000000
v 0.000000 0.000000 0.000000
v 1.000000 0.000000 0.000000
v 0.000000 1.000000 1.000000
v 0.000000 0.000000 1.000000
v 0.000000 0.000000 0.000000
v 0.000000 1.000000 0.000000
vt 0.999850 0.999850
vt 0.000150 0.999850
vt 0.000150 0.000150
vt 0.999850 0.000150
vt 1.000000 1.000000
vt 0.000000 1.000000
vt 1.000000 0.000000
vn 0.000000 -0.000000 -1.000000
vn 0.000000 -1.000000 -0.000000
vn 1.000000 -0.000000 -0.000000
usemtl Material.001
s off
f 1/1/1 2/2/1 3/3/1 4/4/1
f 5/1/2 6/2/2 7/3/2 8/4/2
f 9/5/3 10/6/3 11/3/3 12/7/3
