# Blender v2.77 (sub 0) OBJ File: 'controlAndCalibration.blend'
# www.blender.org
mtllib control_checker.mtl
o control_checker
v 0.500000 0.000000 0.000000
v 0.000000 0.000000 0.000000
v 0.000000 -0.500000 0.000000
v 0.499999 -0.500000 0.000000
v 0.000000 0.500000 0.000000
v -0.500000 0.500000 0.000000
v -0.500000 0.000000 0.000000
v 0.500000 0.500000 -0.050000
v 0.500000 -0.500000 -0.050000
v -0.500000 -0.500000 -0.050000
v -0.500000 0.500000 -0.050000
v -0.500000 -0.500000 0.000000
v 0.500000 0.499999 0.000000
vn 0.0000 0.0000 1.0000
vn 0.0000 0.0000 -1.0000
vn 1.0000 -0.0000 0.0000
vn 0.0000 -1.0000 0.0000
vn -1.0000 0.0000 0.0000
vn 0.0000 1.0000 0.0000
usemtl White.001
s 1
f 1//1 2//1 3//1 4//1
f 5//1 6//1 7//1 2//1
usemtl Black.001
f 8//2 9//2 10//2 11//2
f 2//1 7//1 12//1 3//1
f 8//3 13//3 1//3 4//3 9//3
f 9//4 4//4 3//4 12//4 10//4
f 10//5 12//5 7//5 6//5 11//5
f 13//6 8//6 11//6 6//6 5//6
f 13//1 5//1 2//1 1//1
